<?xml version="1.0" standalone="no"?><!DOCTYPE svg PUBLIC "-//W3C//DTD SVG 1.1//EN" "http://www.w3.org/Graphics/SVG/1.1/DTD/svg11.dtd"><svg t="1588240342401" class="icon" viewBox="0 0 1024 1024" version="1.1" xmlns="http://www.w3.org/2000/svg" p-id="3863" xmlns:xlink="http://www.w3.org/1999/xlink" width="200" height="200"><defs><style type="text/css"></style></defs><path d="M1009.6 504c0 270.4-219.2 489.6-489.6 489.6S30.4 774.4 30.4 504c0-134.4 102.4-110.4 88-27.2-43.2 248 259.2 454.4 387.2 432C1092.8 798.4 827.2 395.2 936 368c65.6-17.6 73.6 35.2 73.6 136z" fill="#FF7FB7" p-id="3864"></path><path d="M512 40c260.8 0 472 212.8 472 472S772.8 984 512 984 40 772.8 40 512 251.2 40 512 40m0-32C233.6 8 8 233.6 8 512S233.6 1016 512 1016 1016 790.4 1016 512 790.4 8 512 8z" fill="#ED2476" p-id="3865"></path><path d="M512 124.8c212.8 0 387.2 172.8 387.2 387.2S724.8 899.2 512 899.2 124.8 724.8 124.8 512 299.2 124.8 512 124.8m0-16C289.6 108.8 108.8 289.6 108.8 512S289.6 915.2 512 915.2 915.2 734.4 915.2 512 734.4 108.8 512 108.8z" fill="#ED2476" p-id="3866"></path><path d="M345.6 788.8h-1.6c-97.6-59.2-156.8-163.2-156.8-276.8 0-1.6 1.6-4.8 4.8-4.8s4.8 1.6 4.8 4.8c0 112 57.6 212.8 153.6 270.4 1.6 1.6 3.2 3.2 1.6 4.8-4.8 1.6-4.8 1.6-6.4 1.6zM508.8 835.2c-19.2 0-38.4-1.6-57.6-4.8-1.6 0-3.2-3.2-3.2-4.8 0-1.6 3.2-3.2 4.8-3.2 33.6 6.4 68.8 6.4 102.4 1.6 1.6 0 4.8 1.6 4.8 3.2s-1.6 4.8-3.2 4.8c-14.4 1.6-32 3.2-48 3.2zM212.8 396.8c-3.2-1.6-4.8-3.2-3.2-4.8 49.6-123.2 166.4-203.2 299.2-203.2 80 0 156.8 28.8 216 81.6 1.6 1.6 1.6 4.8 0 6.4-1.6 1.6-4.8 1.6-6.4 0-57.6-51.2-132.8-80-209.6-80-129.6 0-243.2 76.8-292.8 196.8 0 3.2-1.6 3.2-3.2 3.2z" fill="#ED2476" p-id="3867"></path></svg>